<?xml version="1.0" standalone="no"?>
<!DOCTYPE svg PUBLIC "-//W3C//DTD SVG 20010904//EN"
 "http://www.w3.org/TR/2001/REC-SVG-20010904/DTD/svg10.dtd">
<svg version="1.0" xmlns="http://www.w3.org/2000/svg"
 width="512.000000pt" height="512.000000pt" viewBox="0 0 512.000000 512.000000"
 preserveAspectRatio="xMidYMid meet">

<g transform="translate(0.000000,512.000000) scale(0.100000,-0.100000)"
fill="#000000" stroke="none">
<path d="M765 4900 c-139 -19 -251 -76 -361 -185 -85 -85 -138 -172 -171 -285
-21 -73 -32 -764 -13 -849 16 -74 84 -143 156 -160 92 -22 187 19 235 102 24
42 24 42 29 427 l5 385 28 42 c15 24 46 55 70 70 l42 28 385 5 c385 5 385 5
427 29 83 48 124 143 102 235 -16 67 -85 138 -151 154 -54 14 -683 15 -783 2z"/>
<path d="M3566 4898 c-60 -16 -130 -91 -145 -154 -22 -92 19 -187 102 -235 42
-24 42 -24 427 -29 l385 -5 42 -28 c24 -15 55 -46 70 -70 l28 -42 5 -385 c5
-385 5 -385 29 -427 48 -83 143 -124 235 -102 72 17 140 86 156 160 19 85 8
776 -13 849 -65 220 -237 392 -457 457 -46 13 -121 16 -440 19 -255 2 -398 -1
-424 -8z"/>
<path d="M366 1698 c-62 -17 -131 -92 -146 -159 -19 -85 -8 -776 13 -849 65
-220 237 -392 457 -457 73 -21 764 -32 849 -13 74 16 143 84 160 156 22 92
-19 187 -102 235 -42 24 -42 24 -427 29 l-385 5 -42 28 c-24 15 -55 46 -70 70
l-28 42 -5 385 c-5 385 -5 385 -29 427 -29 50 -84 91 -138 104 -46 10 -56 10
-107 -3z"/>
<path d="M4642 1700 c-49 -11 -106 -55 -133 -103 -24 -42 -24 -42 -29 -427
l-5 -385 -28 -42 c-15 -24 -46 -55 -70 -70 l-42 -28 -385 -5 c-385 -5 -385 -5
-427 -29 -83 -48 -124 -143 -102 -235 17 -72 86 -140 160 -156 85 -19 776 -8
849 13 220 65 392 237 457 457 13 45 17 124 20 425 6 438 4 455 -66 525 -60
60 -121 79 -199 60z"/>
</g>
</svg>
